# xmcd
#
# Track frame offsets: 
#        150
#        43533
#        58588
#        93811
#        134477
#
# Disc length: 2083 seconds
#
# Revision: 0
# Processed by: cddbd v1.4PL0 Copyright (c) Steve Scherf et al.
# Submitted via: ExactAudioCopy v0.90b4
#
DISCID=3b082105
DTITLE=Van Morrison - Afternoon, Van !!!, disc 2
DYEAR=2003
DGENRE=Celtic
TTITLE0=In The Afternoon > Raincheck
TTITLE1=Precious Time
TTITLE2=Did Ye Get Healed ? > Yeh Yeh
TTITLE3=It's All In The Game > You Know What They're Writing About > R
TTITLE3=ainbow 65 > No Prima Donna
TTITLE4=Gloria
EXTD=
EXTT0=
EXTT1=
EXTT2=
EXTT3=
EXTT4=
PLAYORDER=
